<svg class="w-6 h-6" width="24" height="24" viewBox="0 0 24 24" fill="none" xmlns="http://www.w3.org/2000/svg"><path d="M2 19V15C2 14.4477 2.44772 14 3 14C3.55228 14 4 14.4477 4 15V19L4.00488 19.0986C4.02757 19.3276 4.12883 19.5429 4.29297 19.707C4.48051 19.8946 4.73478 20 5 20H19C19.2652 20 19.5195 19.8946 19.707 19.707C19.8946 19.5195 20 19.2652 20 19V15C20 14.4477 20.4477 14 21 14C21.5523 14 22 14.4477 22 15V19C22 19.7957 21.6837 20.5585 21.1211 21.1211C20.5585 21.6837 19.7957 22 19 22H5C4.20435 22 3.44152 21.6837 2.87891 21.1211C2.38671 20.6289 2.08291 19.9835 2.01465 19.2969L2 19Z" fill="#686583" style="fill-opacity:1;"/><path d="M16.3691 9.22462C16.7619 8.90427 17.3409 8.92686 17.707 9.29298C18.0731 9.65909 18.0957 10.2381 17.7754 10.6309L17.707 10.707L12.707 15.707C12.3165 16.0976 11.6835 16.0976 11.293 15.707L6.29297 10.707L6.22461 10.6309C5.90426 10.2381 5.92685 9.65909 6.29297 9.29298C6.65909 8.92686 7.23809 8.90427 7.63086 9.22462L7.70703 9.29298L12 13.5859L16.293 9.29298L16.3691 9.22462Z" fill="#686583" style="fill-opacity:1;"/><path d="M11 15V3C11 2.44772 11.4477 2 12 2C12.5523 2 13 2.44772 13 3V15C13 15.5523 12.5523 16 12 16C11.4477 16 11 15.5523 11 15Z" fill="#686583" style="fill-opacity:1;"/></svg>