<svg class="w-6 h-6" width="24" height="24" viewBox="0 0 24 24" fill="none" xmlns="http://www.w3.org/2000/svg"><path d="M15 12C15 10.3431 13.6569 9 12 9C10.3431 9 9 10.3431 9 12C9 13.6569 10.3431 15 12 15C13.6569 15 15 13.6569 15 12ZM17 12C17 14.7614 14.7614 17 12 17C9.23858 17 7 14.7614 7 12C7 9.23858 9.23858 7 12 7C14.7614 7 17 9.23858 17 12Z" fill="#686583" style="fill-opacity:1;"/><path d="M11 4V2C11 1.44772 11.4477 1 12 1C12.5523 1 13 1.44772 13 2V4C13 4.55228 12.5523 5 12 5C11.4477 5 11 4.55228 11 4Z" fill="#686583" style="fill-opacity:1;"/><path d="M11 22V20C11 19.4477 11.4477 19 12 19C12.5523 19 13 19.4477 13 20V22C13 22.5523 12.5523 23 12 23C11.4477 23 11 22.5523 11 22Z" fill="#686583" style="fill-opacity:1;"/><path d="M4.22291 4.22297C4.58903 3.85686 5.16803 3.83426 5.5608 4.15461L5.63697 4.22297L7.04713 5.63313L7.11549 5.7093C7.43569 6.10207 7.41319 6.68113 7.04713 7.04719C6.68107 7.41325 6.10201 7.43575 5.70924 7.11555L5.63307 7.04719L4.22291 5.63703L4.15455 5.56086C3.8342 5.16809 3.85679 4.58909 4.22291 4.22297Z" fill="#686583" style="fill-opacity:1;"/><path d="M16.953 16.953C17.3191 16.5868 17.8981 16.5642 18.2909 16.8846L18.3671 16.953L19.7772 18.3631L19.8456 18.4393C20.1658 18.8321 20.1433 19.4111 19.7772 19.7772C19.4112 20.1432 18.8321 20.1657 18.4393 19.8455L18.3632 19.7772L16.953 18.367L16.8847 18.2908C16.5643 17.8981 16.5869 17.3191 16.953 16.953Z" fill="#686583" style="fill-opacity:1;"/><path d="M4 11C4.55228 11 5 11.4477 5 12C5 12.5523 4.55228 13 4 13H2C1.44772 13 1 12.5523 1 12C1 11.4477 1.44772 11 2 11H4Z" fill="#686583" style="fill-opacity:1;"/><path d="M22 11C22.5523 11 23 11.4477 23 12C23 12.5523 22.5523 13 22 13H20C19.4477 13 19 12.5523 19 12C19 11.4477 19.4477 11 20 11H22Z" fill="#686583" style="fill-opacity:1;"/><path d="M5.70924 16.8846C6.10201 16.5643 6.68104 16.5869 7.04713 16.953C7.41314 17.3191 7.43575 17.8981 7.11549 18.2909L7.04713 18.367L5.63697 19.7772C5.24647 20.1676 4.61341 20.1676 4.22291 19.7772C3.83241 19.3867 3.83246 18.7537 4.22291 18.3631L5.63306 16.953L5.70924 16.8846Z" fill="#686583" style="fill-opacity:1;"/><path d="M18.4393 4.15463C18.8321 3.83436 19.4111 3.8569 19.7772 4.22299C20.1432 4.58909 20.1659 5.16814 19.8456 5.56088L19.7772 5.63705L18.3671 7.04721C17.9766 7.43763 17.3435 7.43763 16.953 7.04721C16.5625 6.65671 16.5626 6.02368 16.953 5.63315L18.3632 4.22299L18.4393 4.15463Z" fill="#686583" style="fill-opacity:1;"/></svg>